<mxfile host="app.diagrams.net" modified="2023-10-09T21:29:04.103Z" agent="Mozilla/5.0 (Windows NT 10.0; Win64; x64) AppleWebKit/537.36 (KHTML, like Gecko) Chrome/116.0.0.0 Safari/537.36 OPR/102.0.0.0" etag="KoRMB3LdDRvajjfQIqj_" version="22.0.4" type="github" pages="2">
  <diagram name="Страница — 1" id="YuONCVen2tWsnODO0JvM">
    <mxGraphModel dx="1383" dy="770" grid="1" gridSize="10" guides="1" tooltips="1" connect="1" arrows="1" fold="1" page="1" pageScale="1" pageWidth="827" pageHeight="1169" math="0" shadow="0">
      <root>
        <mxCell id="0" />
        <mxCell id="1" parent="0" />
        <mxCell id="5TM-6S5WcGfOdyFXDcnR-8" value="" style="edgeStyle=orthogonalEdgeStyle;rounded=0;orthogonalLoop=1;jettySize=auto;html=1;" edge="1" parent="1" source="5TM-6S5WcGfOdyFXDcnR-1" target="5TM-6S5WcGfOdyFXDcnR-7">
          <mxGeometry relative="1" as="geometry" />
        </mxCell>
        <mxCell id="5TM-6S5WcGfOdyFXDcnR-1" value="Start&amp;nbsp;" style="strokeWidth=2;html=1;shape=mxgraph.flowchart.terminator;whiteSpace=wrap;" vertex="1" parent="1">
          <mxGeometry x="350" y="110" width="100" height="60" as="geometry" />
        </mxCell>
        <mxCell id="5TM-6S5WcGfOdyFXDcnR-6" value="" style="edgeStyle=orthogonalEdgeStyle;rounded=0;orthogonalLoop=1;jettySize=auto;html=1;" edge="1" parent="1" source="5TM-6S5WcGfOdyFXDcnR-3" target="5TM-6S5WcGfOdyFXDcnR-5">
          <mxGeometry relative="1" as="geometry" />
        </mxCell>
        <mxCell id="5TM-6S5WcGfOdyFXDcnR-3" value="i=0;i&amp;lt;9;i++" style="shape=hexagon;perimeter=hexagonPerimeter2;whiteSpace=wrap;html=1;fixedSize=1;" vertex="1" parent="1">
          <mxGeometry x="340" y="270" width="120" height="80" as="geometry" />
        </mxCell>
        <mxCell id="5TM-6S5WcGfOdyFXDcnR-12" value="" style="edgeStyle=orthogonalEdgeStyle;rounded=0;orthogonalLoop=1;jettySize=auto;html=1;" edge="1" parent="1" source="5TM-6S5WcGfOdyFXDcnR-5" target="5TM-6S5WcGfOdyFXDcnR-10">
          <mxGeometry relative="1" as="geometry" />
        </mxCell>
        <mxCell id="5TM-6S5WcGfOdyFXDcnR-5" value="введення x" style="shape=parallelogram;perimeter=parallelogramPerimeter;whiteSpace=wrap;html=1;fixedSize=1;" vertex="1" parent="1">
          <mxGeometry x="340" y="370" width="120" height="60" as="geometry" />
        </mxCell>
        <mxCell id="5TM-6S5WcGfOdyFXDcnR-9" value="" style="edgeStyle=orthogonalEdgeStyle;rounded=0;orthogonalLoop=1;jettySize=auto;html=1;" edge="1" parent="1" source="5TM-6S5WcGfOdyFXDcnR-7" target="5TM-6S5WcGfOdyFXDcnR-3">
          <mxGeometry relative="1" as="geometry" />
        </mxCell>
        <mxCell id="5TM-6S5WcGfOdyFXDcnR-17" style="edgeStyle=orthogonalEdgeStyle;rounded=0;orthogonalLoop=1;jettySize=auto;html=1;" edge="1" parent="1" source="5TM-6S5WcGfOdyFXDcnR-7">
          <mxGeometry relative="1" as="geometry">
            <mxPoint x="450" y="630" as="targetPoint" />
            <Array as="points">
              <mxPoint x="631" y="220" />
            </Array>
          </mxGeometry>
        </mxCell>
        <mxCell id="5TM-6S5WcGfOdyFXDcnR-7" value="sum=0" style="rounded=0;whiteSpace=wrap;html=1;" vertex="1" parent="1">
          <mxGeometry x="340" y="190" width="120" height="60" as="geometry" />
        </mxCell>
        <mxCell id="5TM-6S5WcGfOdyFXDcnR-14" value="" style="edgeStyle=orthogonalEdgeStyle;rounded=0;orthogonalLoop=1;jettySize=auto;html=1;" edge="1" parent="1" source="5TM-6S5WcGfOdyFXDcnR-10" target="5TM-6S5WcGfOdyFXDcnR-13">
          <mxGeometry relative="1" as="geometry" />
        </mxCell>
        <mxCell id="5TM-6S5WcGfOdyFXDcnR-16" style="edgeStyle=orthogonalEdgeStyle;rounded=0;orthogonalLoop=1;jettySize=auto;html=1;entryX=0;entryY=0.5;entryDx=0;entryDy=0;" edge="1" parent="1" source="5TM-6S5WcGfOdyFXDcnR-10" target="5TM-6S5WcGfOdyFXDcnR-3">
          <mxGeometry relative="1" as="geometry">
            <mxPoint x="270" y="220" as="targetPoint" />
            <Array as="points">
              <mxPoint x="271" y="500" />
              <mxPoint x="271" y="310" />
            </Array>
          </mxGeometry>
        </mxCell>
        <mxCell id="5TM-6S5WcGfOdyFXDcnR-10" value="x&amp;lt;=5" style="rhombus;whiteSpace=wrap;html=1;" vertex="1" parent="1">
          <mxGeometry x="360" y="460" width="80" height="80" as="geometry" />
        </mxCell>
        <mxCell id="5TM-6S5WcGfOdyFXDcnR-23" style="edgeStyle=orthogonalEdgeStyle;rounded=0;orthogonalLoop=1;jettySize=auto;html=1;" edge="1" parent="1" source="5TM-6S5WcGfOdyFXDcnR-13">
          <mxGeometry relative="1" as="geometry">
            <mxPoint x="280" y="500" as="targetPoint" />
            <Array as="points">
              <mxPoint x="540" y="550" />
            </Array>
          </mxGeometry>
        </mxCell>
        <mxCell id="5TM-6S5WcGfOdyFXDcnR-13" value="sum=sum+x" style="whiteSpace=wrap;html=1;" vertex="1" parent="1">
          <mxGeometry x="480" y="470" width="120" height="60" as="geometry" />
        </mxCell>
        <mxCell id="5TM-6S5WcGfOdyFXDcnR-15" value="true" style="text;html=1;align=center;verticalAlign=middle;resizable=0;points=[];autosize=1;strokeColor=none;fillColor=none;" vertex="1" parent="1">
          <mxGeometry x="440" y="460" width="40" height="30" as="geometry" />
        </mxCell>
        <mxCell id="5TM-6S5WcGfOdyFXDcnR-20" value="" style="edgeStyle=orthogonalEdgeStyle;rounded=0;orthogonalLoop=1;jettySize=auto;html=1;" edge="1" parent="1" source="5TM-6S5WcGfOdyFXDcnR-18" target="5TM-6S5WcGfOdyFXDcnR-19">
          <mxGeometry relative="1" as="geometry" />
        </mxCell>
        <mxCell id="5TM-6S5WcGfOdyFXDcnR-18" value="виведення sum" style="shape=parallelogram;perimeter=parallelogramPerimeter;whiteSpace=wrap;html=1;fixedSize=1;" vertex="1" parent="1">
          <mxGeometry x="340" y="600" width="120" height="60" as="geometry" />
        </mxCell>
        <mxCell id="5TM-6S5WcGfOdyFXDcnR-19" value="End" style="strokeWidth=2;html=1;shape=mxgraph.flowchart.terminator;whiteSpace=wrap;" vertex="1" parent="1">
          <mxGeometry x="350" y="700" width="100" height="60" as="geometry" />
        </mxCell>
        <mxCell id="j7nH21EvE-I_Z1IS4o__-1" value="false" style="text;html=1;align=center;verticalAlign=middle;resizable=0;points=[];autosize=1;strokeColor=none;fillColor=none;" vertex="1" parent="1">
          <mxGeometry x="300" y="460" width="50" height="30" as="geometry" />
        </mxCell>
      </root>
    </mxGraphModel>
  </diagram>
  <diagram id="3l8jHLzvIxQMKyEwqaPd" name="Страница — 2">
    <mxGraphModel dx="1456" dy="811" grid="1" gridSize="10" guides="1" tooltips="1" connect="1" arrows="1" fold="1" page="1" pageScale="1" pageWidth="827" pageHeight="1169" math="0" shadow="0">
      <root>
        <mxCell id="0" />
        <mxCell id="1" parent="0" />
        <mxCell id="VpY237XnT6YAXMVc9ogE-20" value="" style="edgeStyle=orthogonalEdgeStyle;rounded=0;orthogonalLoop=1;jettySize=auto;html=1;" edge="1" parent="1" source="VpY237XnT6YAXMVc9ogE-2" target="VpY237XnT6YAXMVc9ogE-19">
          <mxGeometry relative="1" as="geometry" />
        </mxCell>
        <mxCell id="VpY237XnT6YAXMVc9ogE-2" value="Start&amp;nbsp;" style="strokeWidth=2;html=1;shape=mxgraph.flowchart.terminator;whiteSpace=wrap;" vertex="1" parent="1">
          <mxGeometry x="313" y="40" width="100" height="60" as="geometry" />
        </mxCell>
        <mxCell id="VpY237XnT6YAXMVc9ogE-3" value="" style="edgeStyle=orthogonalEdgeStyle;rounded=0;orthogonalLoop=1;jettySize=auto;html=1;" edge="1" parent="1" source="VpY237XnT6YAXMVc9ogE-4" target="VpY237XnT6YAXMVc9ogE-6">
          <mxGeometry relative="1" as="geometry" />
        </mxCell>
        <mxCell id="VpY237XnT6YAXMVc9ogE-4" value="i=1;i&amp;lt;=z;i++" style="shape=hexagon;perimeter=hexagonPerimeter2;whiteSpace=wrap;html=1;fixedSize=1;" vertex="1" parent="1">
          <mxGeometry x="303" y="250" width="120" height="80" as="geometry" />
        </mxCell>
        <mxCell id="VpY237XnT6YAXMVc9ogE-5" value="" style="edgeStyle=orthogonalEdgeStyle;rounded=0;orthogonalLoop=1;jettySize=auto;html=1;" edge="1" parent="1" source="VpY237XnT6YAXMVc9ogE-6" target="VpY237XnT6YAXMVc9ogE-11">
          <mxGeometry relative="1" as="geometry" />
        </mxCell>
        <mxCell id="VpY237XnT6YAXMVc9ogE-6" value="введення x" style="shape=parallelogram;perimeter=parallelogramPerimeter;whiteSpace=wrap;html=1;fixedSize=1;" vertex="1" parent="1">
          <mxGeometry x="303" y="350" width="120" height="60" as="geometry" />
        </mxCell>
        <mxCell id="VpY237XnT6YAXMVc9ogE-8" style="edgeStyle=orthogonalEdgeStyle;rounded=0;orthogonalLoop=1;jettySize=auto;html=1;entryX=1;entryY=0.5;entryDx=0;entryDy=0;exitX=1;exitY=0.5;exitDx=0;exitDy=0;" edge="1" parent="1" source="VpY237XnT6YAXMVc9ogE-4" target="VpY237XnT6YAXMVc9ogE-16">
          <mxGeometry relative="1" as="geometry">
            <mxPoint x="590" y="700" as="targetPoint" />
            <Array as="points">
              <mxPoint x="594" y="290" />
              <mxPoint x="594" y="700" />
            </Array>
          </mxGeometry>
        </mxCell>
        <mxCell id="VpY237XnT6YAXMVc9ogE-10" value="" style="edgeStyle=orthogonalEdgeStyle;rounded=0;orthogonalLoop=1;jettySize=auto;html=1;" edge="1" parent="1" source="VpY237XnT6YAXMVc9ogE-11" target="VpY237XnT6YAXMVc9ogE-13">
          <mxGeometry relative="1" as="geometry" />
        </mxCell>
        <mxCell id="E0Z9n5PS-0a50xvj0S4--2" value="" style="edgeStyle=orthogonalEdgeStyle;rounded=0;orthogonalLoop=1;jettySize=auto;html=1;" edge="1" parent="1" source="VpY237XnT6YAXMVc9ogE-11" target="E0Z9n5PS-0a50xvj0S4--1">
          <mxGeometry relative="1" as="geometry" />
        </mxCell>
        <mxCell id="VpY237XnT6YAXMVc9ogE-11" value="x&amp;gt;max &amp;amp;&amp;amp;&lt;br&gt;n%2=0" style="rhombus;whiteSpace=wrap;html=1;" vertex="1" parent="1">
          <mxGeometry x="323" y="440" width="80" height="80" as="geometry" />
        </mxCell>
        <mxCell id="E0Z9n5PS-0a50xvj0S4--15" style="edgeStyle=orthogonalEdgeStyle;rounded=0;orthogonalLoop=1;jettySize=auto;html=1;" edge="1" parent="1" source="VpY237XnT6YAXMVc9ogE-13">
          <mxGeometry relative="1" as="geometry">
            <mxPoint x="110" y="480" as="targetPoint" />
          </mxGeometry>
        </mxCell>
        <mxCell id="VpY237XnT6YAXMVc9ogE-13" value="max=x" style="whiteSpace=wrap;html=1;" vertex="1" parent="1">
          <mxGeometry x="160" y="450" width="120" height="60" as="geometry" />
        </mxCell>
        <mxCell id="VpY237XnT6YAXMVc9ogE-14" value="true" style="text;html=1;align=center;verticalAlign=middle;resizable=0;points=[];autosize=1;strokeColor=none;fillColor=none;" vertex="1" parent="1">
          <mxGeometry x="290" y="440" width="40" height="30" as="geometry" />
        </mxCell>
        <mxCell id="E0Z9n5PS-0a50xvj0S4--21" value="" style="edgeStyle=orthogonalEdgeStyle;rounded=0;orthogonalLoop=1;jettySize=auto;html=1;" edge="1" parent="1" source="VpY237XnT6YAXMVc9ogE-16" target="E0Z9n5PS-0a50xvj0S4--20">
          <mxGeometry relative="1" as="geometry" />
        </mxCell>
        <mxCell id="VpY237XnT6YAXMVc9ogE-16" value="виведення &lt;br&gt;min, max" style="shape=parallelogram;perimeter=parallelogramPerimeter;whiteSpace=wrap;html=1;fixedSize=1;" vertex="1" parent="1">
          <mxGeometry x="313" y="670" width="120" height="60" as="geometry" />
        </mxCell>
        <mxCell id="VpY237XnT6YAXMVc9ogE-17" value="false" style="text;html=1;align=center;verticalAlign=middle;resizable=0;points=[];autosize=1;strokeColor=none;fillColor=none;" vertex="1" parent="1">
          <mxGeometry x="364" y="520" width="50" height="30" as="geometry" />
        </mxCell>
        <mxCell id="E0Z9n5PS-0a50xvj0S4--16" style="edgeStyle=orthogonalEdgeStyle;rounded=0;orthogonalLoop=1;jettySize=auto;html=1;entryX=0.5;entryY=0;entryDx=0;entryDy=0;" edge="1" parent="1" source="VpY237XnT6YAXMVc9ogE-19" target="VpY237XnT6YAXMVc9ogE-4">
          <mxGeometry relative="1" as="geometry" />
        </mxCell>
        <mxCell id="VpY237XnT6YAXMVc9ogE-19" value="введення &lt;br&gt;n, z, max, min" style="shape=parallelogram;perimeter=parallelogramPerimeter;whiteSpace=wrap;html=1;fixedSize=1;" vertex="1" parent="1">
          <mxGeometry x="303" y="150" width="120" height="60" as="geometry" />
        </mxCell>
        <mxCell id="E0Z9n5PS-0a50xvj0S4--11" value="" style="edgeStyle=orthogonalEdgeStyle;rounded=0;orthogonalLoop=1;jettySize=auto;html=1;" edge="1" parent="1" source="E0Z9n5PS-0a50xvj0S4--1" target="E0Z9n5PS-0a50xvj0S4--7">
          <mxGeometry relative="1" as="geometry" />
        </mxCell>
        <mxCell id="E0Z9n5PS-0a50xvj0S4--13" style="edgeStyle=orthogonalEdgeStyle;rounded=0;orthogonalLoop=1;jettySize=auto;html=1;entryX=0;entryY=0.5;entryDx=0;entryDy=0;" edge="1" parent="1" source="E0Z9n5PS-0a50xvj0S4--1" target="VpY237XnT6YAXMVc9ogE-4">
          <mxGeometry relative="1" as="geometry">
            <mxPoint x="110" y="290" as="targetPoint" />
            <Array as="points">
              <mxPoint x="363" y="650" />
              <mxPoint x="364" y="650" />
              <mxPoint x="364" y="660" />
              <mxPoint x="110" y="660" />
              <mxPoint x="110" y="290" />
            </Array>
          </mxGeometry>
        </mxCell>
        <mxCell id="E0Z9n5PS-0a50xvj0S4--1" value="x&amp;lt;min" style="rhombus;whiteSpace=wrap;html=1;" vertex="1" parent="1">
          <mxGeometry x="323" y="550" width="80" height="80" as="geometry" />
        </mxCell>
        <mxCell id="E0Z9n5PS-0a50xvj0S4--14" style="edgeStyle=orthogonalEdgeStyle;rounded=0;orthogonalLoop=1;jettySize=auto;html=1;" edge="1" parent="1" source="E0Z9n5PS-0a50xvj0S4--7">
          <mxGeometry relative="1" as="geometry">
            <mxPoint x="110" y="590" as="targetPoint" />
          </mxGeometry>
        </mxCell>
        <mxCell id="E0Z9n5PS-0a50xvj0S4--7" value="min=x" style="rounded=0;whiteSpace=wrap;html=1;" vertex="1" parent="1">
          <mxGeometry x="160" y="560" width="120" height="60" as="geometry" />
        </mxCell>
        <mxCell id="E0Z9n5PS-0a50xvj0S4--8" value="true" style="text;html=1;align=center;verticalAlign=middle;resizable=0;points=[];autosize=1;strokeColor=none;fillColor=none;" vertex="1" parent="1">
          <mxGeometry x="283" y="560" width="40" height="30" as="geometry" />
        </mxCell>
        <mxCell id="E0Z9n5PS-0a50xvj0S4--20" value="End" style="strokeWidth=2;html=1;shape=mxgraph.flowchart.terminator;whiteSpace=wrap;" vertex="1" parent="1">
          <mxGeometry x="323" y="780" width="100" height="60" as="geometry" />
        </mxCell>
      </root>
    </mxGraphModel>
  </diagram>
</mxfile>
